<svg xmlns="http://www.w3.org/2000/svg" width="110" height="61" viewBox="0 0 110 61">
  <g id="Group_19695" data-name="Group 19695" transform="translate(-610)">
    <rect id="Rectangle_984" data-name="Rectangle 984" width="110" height="61" transform="translate(610)" fill="none"/>
    <g id="Group_18870" data-name="Group 18870" transform="translate(610 16)">
      <g id="Group_6" data-name="Group 6" transform="translate(0 0.001)">
        <path id="Path_2" data-name="Path 2" d="M0,8.294H9.072l6.021,7.819s2.185-2.592,4.371-4.968c1.485-1.6,5.072-4.968,6.021-5.746,2.474-2.074,4.865-4.017,6.8-5.4H35.01a81.072,81.072,0,0,0-8.577,8.727A81.887,81.887,0,0,0,15.051,27.991Z" fill="#0095e6"/>
        <path id="Path_3" data-name="Path 3" d="M12.6,11.14v1.32H10.5V9.2H31.737L29.47,11.179Z" transform="translate(-6.17 -5.406)" fill="#0095e6"/>
        <path id="Path_4" data-name="Path 4" d="M10.5,35.9l2.1,2.6V45.92h6.144l1.526,1.9H10.5Z" transform="translate(-6.17 -19.824)" fill="#0095e6"/>
        <path id="Path_5" data-name="Path 5" d="M39.925,34.579l-.825,1.9H52.088V16.6l-2.1,2.309v15.67Z" transform="translate(-22.976 -8.483)" fill="#0095e6"/>
        <path id="Path_6" data-name="Path 6" d="M75.6,9.2h6.144l6.186,6.007L94.115,9.2h6.144V33.4H94.115V17.774L87.93,23.868l-6.144-6.007V33.4H75.6Z" transform="translate(-44.969 -5.406)" fill="#0095e6"/>
        <path id="Path_7" data-name="Path 7" d="M143.3,9.2h6.186l6.186,6.007L161.856,9.2h6.1V33.4h-6.144V17.774l-6.186,6.093-6.144-6.007V33.4H143.3Z" transform="translate(-85.24 -5.406)" fill="#0095e6"/>
        <path id="Path_8" data-name="Path 8" d="M228.123,9.243l-3.5,6.05h-8.084a1.089,1.089,0,0,0-.992,1.088,1.026,1.026,0,0,0,.292.719.937.937,0,0,0,.7.282h6.682a9.232,9.232,0,0,1,5.031,1.828,7.968,7.968,0,0,1,2.886,7.355,8.424,8.424,0,0,1-3.464,5.484c-1.9,1.524-5.155,1.349-6.887,1.349H208l3.134-6.006h10.555c.907.043,3.464.217,3.341-2-.042-.827-.495-2-2.474-2-1.567,0-5.773.043-5.773.043a7.23,7.23,0,0,1-6.721-4.135,7.116,7.116,0,0,1,2.433-8.79c1.65-1.13,2.6-1.308,7.093-1.308C223.3,9.2,228.123,9.243,228.123,9.243Z" transform="translate(-123.7 -5.406)" fill="#0095e6"/>
      </g>
      <path id="Path_9" data-name="Path 9" d="M259.962,0A2.012,2.012,0,0,0,257.9,1.9a1.985,1.985,0,0,0,2.062,1.9,2.012,2.012,0,0,0,2.062-1.9A2.012,2.012,0,0,0,259.962,0Zm0,3.423a1.578,1.578,0,0,1-1.65-1.526,1.605,1.605,0,0,1,1.65-1.526A1.578,1.578,0,0,1,261.611,1.9a1.605,1.605,0,0,1-1.649,1.526Z" transform="translate(-153.024 0.001)" fill="#0095e6"/>
      <path id="Path_10" data-name="Path 10" d="M261.754,3.253a.739.739,0,0,0,.33-.165.563.563,0,0,0,.165-.66c-.124-.371-.619-.33-.619-.33h-.989l-.041,2.02h.33V3.294h.454l.619.825h.454Zm-.784-.247V2.428h.577c.124,0,.371.041.371.289,0,.289-.33.289-.33.289Z" transform="translate(-154.61 -1.232)" fill="#0095e6"/>
    </g>
  </g>
</svg>
