<svg xmlns="http://www.w3.org/2000/svg" xmlns:xlink="http://www.w3.org/1999/xlink" width="24" height="24" viewBox="0 0 24 24">
  <defs>
    <clipPath id="clip-path">
      <rect id="Rectangle_1219" data-name="Rectangle 1219" width="12" height="12" transform="translate(1216 6026)" fill="#707070" stroke="#707070" stroke-width="1"/>
    </clipPath>
  </defs>
  <g id="Group_13481" data-name="Group 13481" transform="translate(-1210 -61)">
    <g id="Ellipse_25" data-name="Ellipse 25" transform="translate(1210 61)" fill="none" stroke="#707070" stroke-width="1">
      <circle cx="12" cy="12" r="12" stroke="none"/>
      <circle cx="12" cy="12" r="11.5" fill="none"/>
    </g>
    <g id="Mask_Group_94" data-name="Mask Group 94" transform="translate(0 -5959)" clip-path="url(#clip-path)">
      <g id="twitter" transform="translate(1216 6027.125)">
        <g id="Group_2428" data-name="Group 2428">
          <g id="Group_2427" data-name="Group 2427">
            <path id="Path_318" data-name="Path 318" d="M12,2.467a5.129,5.129,0,0,1-1.418.389A2.446,2.446,0,0,0,11.665,1.5a4.916,4.916,0,0,1-1.56.6A2.46,2.46,0,0,0,5.849,3.773a2.533,2.533,0,0,0,.057.561A6.963,6.963,0,0,1,.835,1.761a2.461,2.461,0,0,0,.756,3.288,2.43,2.43,0,0,1-1.111-.3v.027A2.471,2.471,0,0,0,2.451,7.19a2.455,2.455,0,0,1-.645.081,2.175,2.175,0,0,1-.466-.042,2.484,2.484,0,0,0,2.3,1.714A4.943,4.943,0,0,1,.589,9.992,4.608,4.608,0,0,1,0,9.958a6.926,6.926,0,0,0,3.774,1.1,6.954,6.954,0,0,0,7-7c0-.109,0-.214-.009-.318A4.908,4.908,0,0,0,12,2.467Z" transform="translate(0 -1.313)" fill="#707070"/>
          </g>
        </g>
      </g>
    </g>
  </g>
</svg>
