<svg xmlns="http://www.w3.org/2000/svg" xmlns:xlink="http://www.w3.org/1999/xlink" width="24" height="24" viewBox="0 0 24 24">
  <defs>
    <clipPath id="clip-path">
      <rect id="Rectangle_1220" data-name="Rectangle 1220" width="12" height="12" transform="translate(1277 6094)" fill="#707070" stroke="#707070" stroke-width="1"/>
    </clipPath>
  </defs>
  <g id="Group_13480" data-name="Group 13480" transform="translate(-1244 -61)">
    <g id="Ellipse_26" data-name="Ellipse 26" transform="translate(1244 61)" fill="none" stroke="#707070" stroke-width="1">
      <circle cx="12" cy="12" r="12" stroke="none"/>
      <circle cx="12" cy="12" r="11.5" fill="none"/>
    </g>
    <g id="Mask_Group_95" data-name="Mask Group 95" transform="translate(-27 -6027)" clip-path="url(#clip-path)">
      <g id="google" transform="translate(1277 6096.25)">
        <path id="Path_319" data-name="Path 319" d="M12.366,5.25H11.273V6.339H10.184V7.432h1.088V8.521h1.094V7.432h1.089V6.339H12.366Z" transform="translate(-1.455 -3)" fill="#707070"/>
        <path id="Path_320" data-name="Path 320" d="M3.75,10.125a3.459,3.459,0,0,0,3.6-3.663,3.2,3.2,0,0,0-.061-.624H3.751V7.127H5.879A2.031,2.031,0,0,1,3.751,8.743a2.369,2.369,0,0,1,0-4.738,2.107,2.107,0,0,1,1.494.578l1.018-.977A3.586,3.586,0,0,0,3.75,2.625a3.75,3.75,0,0,0,0,7.5Z" transform="translate(0 -2.625)" fill="#707070"/>
      </g>
    </g>
  </g>
</svg>
