<svg xmlns="http://www.w3.org/2000/svg" xmlns:xlink="http://www.w3.org/1999/xlink" width="44" height="44" viewBox="0 0 44 44">
  <defs>
    <clipPath id="clip-path">
      <rect id="Rectangle_1255" data-name="Rectangle 1255" width="44" height="44" transform="translate(1133 62)" fill="#cc2121" stroke="#707070" stroke-width="1"/>
    </clipPath>
  </defs>
  <g id="Mask_Group_77" data-name="Mask Group 77" transform="translate(-1133 -62)" clip-path="url(#clip-path)">
    <g id="download" transform="translate(1136.645 62)">
      <path id="Path_226" data-name="Path 226" d="M18.077,21.195a10.254,10.254,0,0,0,7.493-3.1,10.254,10.254,0,0,0,3.1-7.493A10.255,10.255,0,0,0,25.57,3.1,10.256,10.256,0,0,0,18.077,0a10.254,10.254,0,0,0-7.493,3.1,10.254,10.254,0,0,0-3.1,7.493,10.254,10.254,0,0,0,3.105,7.493A10.256,10.256,0,0,0,18.077,21.195Zm0,0" transform="translate(0 0)" fill="#cc2121"/>
      <path id="Path_227" data-name="Path 227" d="M36.62,33.834a26.175,26.175,0,0,0-.357-2.78,21.9,21.9,0,0,0-.684-2.8,13.807,13.807,0,0,0-1.149-2.607A9.838,9.838,0,0,0,32.7,23.393a7.64,7.64,0,0,0-2.489-1.564,8.6,8.6,0,0,0-3.178-.575,3.225,3.225,0,0,0-1.722.73c-.516.337-1.12.726-1.794,1.157a10.281,10.281,0,0,1-2.322,1.023,9.015,9.015,0,0,1-5.679,0,10.257,10.257,0,0,1-2.32-1.023c-.668-.427-1.272-.816-1.8-1.157a3.221,3.221,0,0,0-1.722-.73,8.592,8.592,0,0,0-3.177.576,7.633,7.633,0,0,0-2.489,1.564,9.839,9.839,0,0,0-1.732,2.258,13.834,13.834,0,0,0-1.149,2.607,21.957,21.957,0,0,0-.683,2.795,26.084,26.084,0,0,0-.357,2.781C.03,34.677,0,35.55,0,36.433A7.306,7.306,0,0,0,2.17,41.96,7.811,7.811,0,0,0,7.761,44H28.948a7.81,7.81,0,0,0,5.591-2.04,7.3,7.3,0,0,0,2.17-5.528c0-.887-.03-1.761-.089-2.6Zm0,0" transform="translate(0 0)" fill="#cc2121"/>
    </g>
  </g>
</svg>
