<svg xmlns="http://www.w3.org/2000/svg" xmlns:xlink="http://www.w3.org/1999/xlink" width="14" height="14" viewBox="0 0 14 14">
  <defs>
    <clipPath id="clip-path">
      <rect id="Rectangle_148693" data-name="Rectangle 148693" width="14" height="14" transform="translate(1040 184)" fill="#686868" stroke="#686868" stroke-width="1"/>
    </clipPath>
  </defs>
  <g id="Mask_Group_514" data-name="Mask Group 514" transform="translate(-1040 -184)" clip-path="url(#clip-path)">
    <g id="close" transform="translate(1040 184)">
      <g id="_02_User" data-name="02 User" transform="translate(0)">
        <path id="Path_14417" data-name="Path 14417" d="M.683,14A.684.684,0,0,1,.2,12.833L12.833.2a.684.684,0,0,1,.967.967L1.167,13.8a.682.682,0,0,1-.483.2Z" transform="translate(0 0)" fill="#686868"/>
        <path id="Path_14418" data-name="Path 14418" d="M13.316,14a.682.682,0,0,1-.483-.2L.2,1.167A.684.684,0,1,1,1.167.2L13.8,12.833A.684.684,0,0,1,13.316,14Z" transform="translate(0 0)" fill="#686868"/>
      </g>
    </g>
  </g>
</svg>
