<svg xmlns="http://www.w3.org/2000/svg" xmlns:xlink="http://www.w3.org/1999/xlink" width="12" height="12" viewBox="0 0 12 12">
  <defs>
    <clipPath id="clip-path">
      <rect id="Rectangle_1520" data-name="Rectangle 1520" width="12" height="12" transform="translate(718 528)" fill="#707070"/>
    </clipPath>
  </defs>
  <g id="Mask_Group_182" data-name="Mask Group 182" transform="translate(-718 -528)" clip-path="url(#clip-path)">
    <g id="minus" transform="translate(718 532.95)">
      <g id="Group_3182" data-name="Group 3182" transform="translate(0)">
        <path id="Path_519" data-name="Path 519" d="M12,7.65A1.05,1.05,0,0,1,10.95,8.7H1.05a1.05,1.05,0,1,1,0-2.1h9.9A1.05,1.05,0,0,1,12,7.65Z" transform="translate(0 -6.6)" fill="#707070"/>
      </g>
    </g>
    <g id="minus-2" data-name="minus" transform="translate(725.05 528) rotate(90)">
      <g id="Group_3182-2" data-name="Group 3182">
        <path id="Path_519-2" data-name="Path 519" d="M12,1.05A1.05,1.05,0,0,1,10.95,2.1H1.05a1.05,1.05,0,1,1,0-2.1h9.9A1.05,1.05,0,0,1,12,1.05Z" fill="#707070"/>
      </g>
    </g>
  </g>
</svg>
